<?xml version="1.0" standalone="no"?>
<!DOCTYPE svg PUBLIC "-//W3C//DTD SVG 1.1//EN" "http://www.w3.org/Graphics/SVG/1.1/DTD/svg11.dtd" >
<svg xmlns="http://www.w3.org/2000/svg">
<metadata></metadata>
<defs>
<font id="spongefont_squaresquaretypeRg" horiz-adv-x="618" >
<font-face units-per-em="2048" ascent="1638" descent="-410" />
<missing-glyph horiz-adv-x="620" />
<glyph horiz-adv-x="2048" />
<glyph horiz-adv-x="2048" />
<glyph unicode="&#xd;" horiz-adv-x="620" />
<glyph unicode=" "  horiz-adv-x="620" />
<glyph unicode="&#x09;" horiz-adv-x="620" />
<glyph unicode="&#xa0;" horiz-adv-x="620" />
<glyph unicode="!" horiz-adv-x="405" d="M76 185l74 195l145 6q68 -70 80 -203q14 -104 -92 -164l-111 23zM111 1388l2 -916l106 1l108 69l-2 885l-123 -34z" />
<glyph unicode="&#x22;" horiz-adv-x="849" d="M119 1267l13 115l105 33q141 -8 120 -113q7 -141 -11 -406l-158 16l-60 84zM511 899l64 299l-15 191l81 9l120 18q7 -217 -32 -409l-44 -95z" />
<glyph unicode="#" horiz-adv-x="1103" d="M119 846l8 -174l517 43l296 -29l-8 167l-468 -12zM148 1177l8 -174l517 43l296 -29l-8 167l-468 -12zM364 1379l1 -916l61 1l62 69l-2 885l-70 -34zM637 1391l1 -864l49 1l74 17l-2 885l-82 12z" />
<glyph unicode="$" horiz-adv-x="913" d="M112 455q-8 -461 420 -447q424 -39 367 402q10 254 -94 450q-187 55 -309 60l-35 71q-33 383 237 273q11 -72 -12 -131q78 14 131 36q-20 273 -297 248h-12h12h-24h12h-12q-543 -37 -320 -676q221 60 356 -69q50 -221 23 -391q-137 -101 -283 -84q0 86 11 143l12 119z M116 -53l100 -33l152 205l444 1319l8 98l-116 98l-29 -94l-551 -1540z" />
<glyph unicode="%" horiz-adv-x="1035" d="M109 1147l74 195l145 6q68 -70 80 -203q14 -104 -92 -164l-111 23zM185 -164l8 53l551 1540l29 94l116 -98l-8 -98l-444 -1319l-152 -205zM672 157l13 115l105 33q141 -8 120 -113q7 -141 -73 -199l-113 51z" />
<glyph unicode="&#x26;" horiz-adv-x="1029" d="M124 466q-27 236 152 374q-231 85 -142 255q24 167 219 162h10h-10h10q14 -7 28 -7h29h46h29h38h29h190q31 -11 57 -14q39 -22 77 -28v-29q-18 -43 -18 -76q-100 4 -162 21h-29q-150 31 -257 27q-21 -74 0 -126l18 -15h28h39h172l18 -56l11 -21l28 -50l8 -43l39 -84 q-455 -69 -353 -389q146 -83 268 180l77 4q75 -16 141 -15v-49q-10 -11 -10 -21q0 -125 -28 -205q-63 -37 -114 -57q-709 -33 -638 262zM443 1462h171l-37 -211q69 -479 69.5 -611t24.5 -504l11 -140l-95 3q-26 13 -89 15q4 57 19 181z" />
<glyph unicode="'" horiz-adv-x="389" d="M78 905l64 299l-15 191l81 9l120 18q7 -217 -32 -409l-44 -95z" />
<glyph unicode="(" horiz-adv-x="808" d="M113 1589l10 -157v-140q10 -30 10 -59l8 -336q13 -31 11 -59v-127l10 -49v-119q12 -117 10 -199v-49q10 -14 10 -29v-157l11 -21v-168q14 -67 8 -119h41q14 11 28 11q60 26 109 28q16 13 31 10l77 31h41q35 15 70 19q76 34 147 41l-10 28l-49 109l-80 -10 q-110 -45 -196 -50v60q14 80 10 139l10 49v49v39l8 21q-6 82 11 147q-5 74 10 129v39l10 168v80l10 68l127 -50l10 70l11 59l20 140l10 98l9 18q6 107 20 179h-39l-168 20l-41 10h-28l-21 11q-51 0 -78 8h-41q-92 22 -157 20z" />
<glyph unicode=")" horiz-adv-x="817" d="M109 -172h43h53h139h43h182h31h129v74v43v53l-10 33v43v32v107v84v33v32q-14 39 -10 84v33v139v74l-13 53v66v53v64v43v43v53l-10 41v66v30v53v33v86q-14 123 -10 213h-119q-14 -12 -31 -10h-43h-32q-17 -12 -31 -10h-33h-33l-30 -13l-215 -10v-149h32l183 -31v-225 l-13 -43v-469q-22 -144 -10 -236l-170 53v-73q-2 -54 -10 -86v-246q-12 -125 -12 -213z" />
<glyph unicode="*" horiz-adv-x="874" d="M113 602l238 45l81 98l34 99l28 43l61 -143l45 -95l136 -41l138 -6l-250 -154l47 -92l29 -196l-219 240l-194 -240l32 237l-17 92z" />
<glyph unicode="+" horiz-adv-x="899" d="M113 520q0 62 37.5 99.5t99.5 37.5h117v117q0 137 139 137q61 0 99 -37.5t38 -99.5v-117h117q61 0 99 -37.5t38 -99.5q0 -139 -137 -139h-117v-117q0 -61 -38 -99t-99 -38q-62 0 -100.5 38t-38.5 99v117h-117q-62 0 -99.5 39t-37.5 100z" />
<glyph unicode="," horiz-adv-x="389" d="M78 155l13 115l105 33q141 -8 120 -113q7 -141 -11 -406l-158 16l-60 84z" />
<glyph unicode="-" horiz-adv-x="541" d="M78 707l8 -174l227 26l185 -6l-25 173l-160 11z" />
<glyph unicode="." horiz-adv-x="389" d="M79 146l74 195l145 6q68 -70 80 -203q14 -104 -92 -164l-111 23z" />
<glyph unicode="/" horiz-adv-x="739" d="M-4 -98l8 53l551 1540l29 94l116 -98l-8 -98l-444 -1319l-152 -205z" />
<glyph unicode="0" horiz-adv-x="1067" d="M174 1198q-147 -592 47 -1108l80 -80q674 -86 709 514v33l-13 35v92l-10 35v33l-12 79v35q-4 129 -23 217q-20 107 -57 183q-205 188 -457 161l-149 -57zM195 -123l100 -33l291 920l272 631l41 71l-117 99l-28 -95l-551 -1540zM324 844q8 157 65 284q37 152 168 158 q115 -41 182 -112l13 -23l10 -25l12 -45l12 -80l23 -251q-16 -359 -231 -295q-109 -256 -123 -197l-78 127l-35 131v131z" />
<glyph unicode="1" horiz-adv-x="518" d="M111 793l24 8l82 16l-8 -49l-8 -106q-8 -62 -8 -99q-11 -47 -9 -82l-8 -41l-16 -139v-41l-8 -24l-9 -107l-16 -131h98l49 8h25l164 8v25v24v25v107v57v49v57v164v58v49v41v49v33v147v90v33v33v32v33v140v24v98h-33l-24 9l-66 16l-66 16l-98 17v-41q-18 -82 -16 -139 l-8 -50l-9 -131l-8 -49l-8 -57q-2 -62 -8 -99q-2 -47 -8 -81z" />
<glyph unicode="2" horiz-adv-x="950" d="M111 10h36q72 4 121 -10h92h27q35 -10 74 -8h28l64 -10h29h73q127 -23 240 10v37v63q12 53 8 92q-188 -73 -368 -55q-41 141 -19 258l19 37q380 53 342 618q43 443 -553 388q-265 -144 -203 -508l147 -9q-10 426 129 387q166 13 129 -415q-90 -135 -221 -193l-10 -18 l-19 -10l-73 -56l-8 -37l-19 -36v-37q-20 -92 -18 -156l-11 -37v-37q-10 -35 -8 -73l-10 -19v-29z" />
<glyph unicode="3" horiz-adv-x="983" d="M109 383q10 -14 10 -29q0 -170 28 -278q64 -51 115 -78q717 -45 645 356q27 322 -153 510q233 117 143 348q-25 228 -221 222h-10h10h-10q-15 -11 -29 -11h-29h-47h-29h-38h-29h-193q-30 -14 -57 -18q-39 -31 -78 -39v-39q19 -59 19 -104q100 6 163 28h29q152 43 260 37 q21 -100 0 -172l-18 -20h-29h-39h-174l-18 -76l-11 -29l-28 -67l-8 -60l-39 -114q458 -95 356 -531q-147 -113 -117 281h-39l-28 -11l-164 -18q-76 -22 -143 -20v-68z" />
<glyph unicode="4" horiz-adv-x="946" d="M113 504q30 -49 43 -86h41h26q35 14 68 10h24q86 21 154 16v-51q-10 -41 -10 -67l-17 -322h27h25h24q90 10 146 8q67 17 127 8l-11 95v32v27q-8 8 -8 16v33v27v24q-10 9 -8 17v67l-8 60h35q49 -12 92 -17l-9 119h-118q-2 64 8 111v49l8 262v35q0 49 8 84v43v33v34v60 l11 151l-43 9l-25 8h-27l-67 18l-60 17v-43l-16 -117l-8 -86v-60l-8 -41l-11 -77l-8 -109v-35l-8 -67q-4 -90 -16 -144l-9 -127l-94 -16v25l10 67l9 170v25q12 51 8 94l8 68v24v35l16 194h-32h-27h-33h-153l-9 -43l-8 -51q0 -86 -16 -143l-8 -111l-9 -24v-35l-18 -68v-24 q-20 -127 -16 -211z" />
<glyph unicode="5" horiz-adv-x="1085" d="M109 145l10 -69l10 -60h29l69 -20h41h109h69q134 -2 218 10q53 23 90 29q329 190 219 635q-12 463 -488 307l-10 41l10 18v31l11 119l20 139h29h30q109 -20 179 -20l10 129h-39h-51h-129h-39h-170h-29h-119v-60q-16 -80 -10 -139q-14 -57 -10 -109l-10 -30v-109l-11 -29 v-100q-8 -47 -8 -80h29h31h77q78 37 150 41q166 -280 100 -586q-41 -34 -80 -38l-110 -11l-19 -10q-124 -2 -208 -29z" />
<glyph unicode="6" horiz-adv-x="987" d="M111 698q18 -135 10 -225q-15 -293 176 -461l29 -10h39h108h49q10 12 19 10h30h29q78 23 137 19q49 22 88 20q31 43 60 68q73 252 -39 442l-31 10l-29 9h-28h-49l-306 -19v29q17 158 11 266q159 143 383 96v41l10 39v39l8 39v29v30l10 29v29l21 196h-39h-31 q-112 17 -186 11q-58 -17 -107 -11h-30h-195l-10 -18l-10 -31l-19 -39l-20 -18q-35 -94 -68 -148l-10 -79l-10 -50v-342zM483 492q236 -21 68 -420q-272 14 -68 420z" />
<glyph unicode="7" horiz-adv-x="870" d="M111 1071l217 74l55 18q20 -37 25 -71q28 -68 22 -142l-10 -37v-82q-19 -67 -25 -118v-82q-18 -92 -12 -156l-10 -22q-6 -324 10 -426q14 -13 12 -25h35h37h154q84 8 153 59v35v60v37v47v34v238v59v47v48v47v35v36v47v35v97v34v142q4 155 -24 262h-48h-59h-35l-35 10h-36 l-201 12q-94 23 -176 13l-49 -13v-352z" />
<glyph unicode="8" horiz-adv-x="868" d="M109 1071l26 -227l96 -142l-102 -456l102 -236q377 -49 643 94q87 285 13 549q-66 54 -144 60l-12 37q113 47 168 59q41 336 -47 608h-96l-25 13h-35h-37h-153q-45 -17 -96 -13q-109 -31 -191 -22zM336 217l12 111l109 182q286 -12 346 -250q-80 -215 -369 -156l-63 39z M340 1030l74 195l145 6q68 -70 80 -203q14 -104 -92 -164l-111 23z" />
<glyph unicode="9" horiz-adv-x="1018" d="M119 1036q18 -98 67 -166l29 -10l31 -8h28h50l303 18v-28q-17 -158 -11 -264q-18 -158 -45 -322l-39 -145l-26 -117l199 16h67q166 277 148 557q4 115 -11 197q31 338 -98 596q-149 98 -301 70q-10 -13 -21 -11h-28h-31q-76 -22 -135 -20q-49 -21 -88 -19 q-117 -163 -88 -344zM399 1176q115 170 166 118q6 -178 -20 -303l-8 -18l-39 -49q-238 18 -99 252z" />
<glyph unicode=":" horiz-adv-x="389" d="M79 608l74 195l145 6q68 -70 80 -203q14 -104 -92 -164l-111 23zM123 163l13 115l105 33q141 -8 120 -113q7 -141 -73 -199l-113 51z" />
<glyph unicode=";" horiz-adv-x="389" d="M79 608l74 195l145 6q68 -70 80 -203q14 -104 -92 -164l-111 23zM123 163l13 115l105 33q141 -8 120 -113q7 -141 -11 -406l-158 16l-60 84z" />
<glyph unicode="=" horiz-adv-x="899" d="M110 418l11 -223l118 21l246 24l141 15l-8 188l-258 -49zM110 813l11 -223l291 33l238 -9l-32 224l-206 15z" />
<glyph unicode="?" horiz-adv-x="990" d="M121 922l147 -9q-14 329 240 329q317 -102 90 -375q-90 -139 -317 -214l-69 -114l-14 -52q-42 -81 -40 -145l-11 -37v-37l290 -10l37 242q362 239 403 542q43 443 -553 388q-265 -144 -203 -508zM137 42l74 195l145 6q68 -70 80 -203q14 -104 -92 -164l-111 23z" />
<glyph unicode="@" horiz-adv-x="1388" d="M155 533q172 -715 983 -482l79 109l48 113l-235 83l269 18l-26 193l-8 204l-72 313l-89 130q-196 318 -648 236q-468 -225 -301 -917zM367 969q-49 -298 21 -545q193 -121 384 -74q48 101 107 160v-42q21 -109 17 -142l334 67l-35 247l-172 -56l-80 403l-41 106l-67 -3 q15 -12 -9 -154q-273 270 -459 33zM402 341q-339 670 175 922l235 -14l103 -135l66 -140l81 -357q38 -371 -194 -392l-199 -11zM644 552q7 210 75 352q208 -56 170 -277q-102 -220 -245 -75z" />
<glyph unicode="A" horiz-adv-x="1157" d="M111 59l36 -12l48 -12l22 -23l264 -108v37l23 94q6 162 49 274q36 -112 36 -204q0 -17 -1 -33h143l37 -13h35l239 -12l-12 37v35v47l-22 96l-13 156l-24 84v72l-13 59v35q-24 89 -24 158v10l-10 59q-14 53 -14 100q0 11 1 21q-14 16 -12 35v37l-12 34v37l-13 23l-22 215 h-37h-35l-24 12h-35q-113 23 -193 25l-24 -72l-23 -59l-12 -72l-72 -203q-2 -31 -12 -49l-12 -72l-23 -47q-14 -67 -37 -119q-18 -90 -47 -155l-12 -62l-12 -47l-25 -35l-10 -84l-12 -24l-25 -96l-12 -35zM565 375q27 114 72 190l22 84q25 101 62 168v35l10 25q0 131 25 215 l12 -60v-71l12 -97l23 -131v-37l24 -84v-47l13 -84q39 -162 47 -262l-47 12l-37 23l-35 12q-119 78 -203 109z" />
<glyph unicode="B" horiz-adv-x="845" d="M109 754l12 -47v-693q96 -12 184 -12q260 0 459 107q46 153 46 300q0 126 -34 248q-65 54 -143 60l-12 37q112 47 167 59q13 107 13 207q0 215 -60 401h-96l-24 13h-35h-37h-154q-36 -14 -77 -14q-9 0 -19 1q-86 -24 -155 -24q-18 0 -35 2v-645zM299 872v50v202v35v144 q165 -4 165 -150q0 -35 -9 -78q9 -46 9 -83q0 -126 -114 -125q-23 0 -51 5zM324 109q0 77 12 133v34l10 238q287 -12 346 -250q-63 -168 -252 -168q-53 0 -116 13z" />
<glyph unicode="C" horiz-adv-x="1034" d="M113 618q-1 -21 -1 -41q0 -80 13 -141v-90l10 -22v-80q23 -70 25 -125q127 -82 248 -103q83 -17 152 -17q337 0 338 401q0 34 -3 71q-48 12 -92 12q-17 0 -33 -2q2 -41 2 -78q0 -99 -12 -172q-55 -94 -125 -145q-51 6 -90 23q-21 69 -45 122v35q-21 60 -25 103l-10 32 l-23 195v33q-6 125 -22 205v77l10 250q51 131 182 148q11 1 20 1q84 0 84 -98q0 -13 -1 -28v-90v-31q0 -113 -13 -197h35h45l193 -10v33l22 227q-39 45 -57 90l-22 35l-46 57q-84 52 -124 123q-86 2 -136 13h-112q-185 -37 -295 -148l-12 -45l-11 -22l-12 -35l-10 -23 l-13 -45l-34 -147v-351z" />
<glyph unicode="D" horiz-adv-x="966" d="M111 1212l12 -47v-395l10 -47v-477q17 -87 17 -159q0 -40 -5 -75q89 -9 167 -9q593 0 592 536q0 74 -11 159v26q0 368 -164 615l-186 60q-68 2 -117 12l-141 23h-35h-139v-222zM356 268l11 187v82q13 49 13 90q0 14 -1 26l12 152v69l10 58v47v47l25 291q119 -2 199 -23 q108 -230 108 -455q0 -41 -4 -81q1 -27 1 -52q0 -441 -317 -441q-28 0 -57 3z" />
<glyph unicode="E" horiz-adv-x="802" d="M111 -2h145h43h45h45h189h34h133v33q-20 69 -22 123h-45q-10 -13 -23 -11h-32q-111 -43 -201 -45l-10 367h45h32l224 -10l10 344v190h-45h-33h-45h-201v43v35l13 33v33l10 178h78l22 -11l178 -12l13 135h-58h-143h-45h-33l-22 11h-45h-33h-223v-1436z" />
<glyph unicode="F" horiz-adv-x="884" d="M109 127q13 -49 13 -90q0 -20 -3 -39h33h30q88 0 150 10h149v43l-10 43v43l-12 31q0 70 -10 119v41v32q-13 17 -11 33v31l-20 170q60 -22 113 -22q40 0 77 12v32l10 43l13 21v33l20 84q25 77 31 129h-41l-33 10h-43h-41h-75q-88 -11 -155 -11q-19 0 -36 1v30v33v137 q299 -4 520 -106v33l10 32v31v33l13 31v32l20 213h-180h-117h-43h-182h-31h-127l-12 -116v-129l-10 -213v-54q1 -19 1 -37q0 -63 -11 -110v-639z" />
<glyph unicode="G" horiz-adv-x="1126" d="M176 1180q-62 -257 -62 -496q0 -314 107 -596l148 -68q88 -20 163 -20q305 0 418 328l-12 -35q0 -57 -10 -90l-23 -183h148v33v205l10 35v92l12 227q-19 39 -57 39q-15 0 -33 -6h-35h-352l-35 -80q4 -51 115 -51q39 0 90 6q17 -72 17 -137q0 -113 -52 -203h-160l-67 148 v45l-10 35v32q-15 19 -13 35v35q-23 114 -23 202q0 19 1 36v47v204v45l10 23l25 182q93 12 159 12q17 0 33 -1q180 -12 180 -153q0 -34 -10 -75l127 58q-35 347 -404 347q-46 0 -98 -5q-80 -27 -137 -35l-10 -35q-105 -94 -160 -182z" />
<glyph unicode="H" horiz-adv-x="964" d="M109 1186l12 -1188h35l22 12h37l152 23v47v35v37q12 55 12 92v37v163q14 68 14 121q0 18 -2 33h234v-129l-11 -59v-177q-12 -131 -12 -213h35h35h37q59 14 110 14q16 0 31 -1v71v58v59l-12 189v47v47v35l12 235v47v35v47l10 164v35v166q14 66 14 116q0 19 -2 35h-34h-60 h-35h-34h-37l-23 -10h-35h-34h-154v-94l12 -47v-129q13 -19 11 -37l12 -223q-13 -1 -25 -1q-71 0 -117 25l-10 199q-8 74 -8 142q0 102 18 188h-34h-142l-22 -189z" />
<glyph unicode="I" horiz-adv-x="593" d="M113 1235v-29q0 -100 12 -170v-268q12 -31 12 -59v-244q13 -19 13 -37v-420h34h47h35h234v35v35v82l12 198q1 21 1 40q0 78 -13 137l12 47v45v47l12 82v47v47v35v47v35v34q11 56 11 95l12 34v35v95q-10 53 -9.5 99.5t9.5 86.5h-141q-118 -26 -209 -26q-31 0 -60 3z" />
<glyph unicode="J" horiz-adv-x="884" d="M113 674q-1 -20 -1 -39q0 -398 259 -633q46 -6 89 -6q223 0 359 162l10 57q1 25 1 49q0 72 -11 129v156l-12 145v45v45v19q0 57 -10 104v35v33v78v45l10 22l12 178q-28 82 -35 136h-45q-16 -13 -32 -11q-199 -55 -326 -67l-10 -58l10 -155l12 -33v-80q24 -100 24 -178 q0 -12 -1 -23q12 -10 10 -22l12 -78q13 -199 45 -326v-14q0 -82 -22 -153q-39 -8 -72 -8q-209 0 -209 291q0 74 13 165z" />
<glyph unicode="K" horiz-adv-x="1134" d="M113 0h34h46h34l230 12l45 11v34v35l-10 92v33v92v92q-10 39 -9.5 73t9.5 63q22 -56 45 -91l10 -34l24 -35l23 -33l10 -35l25 -22l10 -35q18 -14 23 -35q79 -76 114 -147q70 -56 103 -115q59 35 79 68l-22 34l-33 35l-35 58l-22 45q-19 14 -25 34q-59 60 -80 115l-67 80 l-12 33l-23 24l-10 23l-13 22q-88 99 -124 183l45 22l34 12q11 21 23 23l45 22l23 23l34 25l35 22l35 10l22 23l33 24l47 11l11 22l79 35q74 64 150 92l-12 23l-11 35q-20 10 -22 22l-12 33q-21 12 -23 24l-45 68q-43 88 -92 137l-35 -35q-14 -18 -35 -22q-61 -86 -137 -125 q-10 -21 -22 -23q-11 -20 -23 -24l-10 -23l-70 -45q-88 -112 -194 -172v47v58l12 22v80v45v35v33q11 65 11 112q0 13 -1 25l-227 -10v-127l-13 -80v-320l-10 -80v-274q-13 -47 -13 -87q0 -13 1 -26v-172q-12 -135 -12 -229z" />
<glyph unicode="L" horiz-adv-x="825" d="M115 125l12 -72q12 -18 12 -35h119l25 -12h120l23 -12q108 -8 198 -8t162 8q-16 130 -107 131q-61 0 -157 -59v49l-12 22v121q-47 108 -47 211v16q20 101 24 168v37l11 35v49v35l12 25l12 239q3 56 3 107q0 146 -27 254h-156h-12h12h-23h11h-23h12h-24h12h-24h12h-25h13 h-25h12h-24h12h-22h10h-23h13h-25h12h-24h12h-12q-43 -43 -84 -60v-1249z" />
<glyph unicode="M" horiz-adv-x="1445" d="M111 4h96l84 -12v35v215v49v35v36v35v49v35v84v35v37q-2 30 -2 58q0 74 12 132l37 -34l12 -62q19 -31 23 -59l12 -47q14 -19 12 -37l25 -35l12 -37l119 -346l25 25l22 36l12 23l13 25q12 20 22 24q66 135 133 213q45 78 60 133l12 35l22 59q33 117 84 193l25 72v-838h59 h35h49l25 -10h47l203 -13v72v84v59v60v72v47v215l-12 59v59v156v47v205v35v143h-95h-239q-19 -59 -47 -96q-113 -301 -287 -477q-21 -60 -49 -94l-13 47q-18 37 -22 71l-25 47l-34 119l-13 25l-12 47l-12 37l-13 47l-34 84l-12 24v35q-45 86 -60 156h-37h-156v-84 q-13 -52 -13 -100q0 -16 1 -31l-10 -107q-12 -111 -12 -182v-20l-13 -37l-12 -215q-12 -109 -12 -183v-20q-12 -57 -12 -106q0 -13 1 -25l-12 -37v-82z" />
<glyph unicode="N" horiz-adv-x="1032" d="M111 672l12 -35v-617h47h82q50 -14 92 -14q14 0 27 2l-11 94v37l11 35q-5 62 -5 120q0 139 29 249l25 -49v-35q53 -86 82 -154l12 -37l12 -47l23 -35l12 -36l94 -213q72 26 119 59l178 72v59v72q-1 18 -1 35q0 73 14 131v34v154v49v35v119v35v36v35v47q15 129 15 221 q0 42 -3 76l-84 25l-72 12l13 -156l-13 -188l-22 -168v-225l-25 -131q-48 79 -48 152q0 8 1 16q-22 67 -25 119l-10 59q-30 94 -37 166l-12 35v36q-12 17 -10 35l-12 47l-13 84l-12 23l-35 190h-106q-36 -13 -75 -13q-10 0 -20 1l-24 -12l-225 -10v-631z" />
<glyph unicode="O" horiz-adv-x="1062" d="M178 1202q-63 -255 -63 -496q0 -318 110 -612l80 -80q84 -11 159 -11q519 0 550 525v33l-13 35v92l-10 35v33l-12 80v34q-4 129 -23 217q-20 107 -57 183q-180 165 -396 165q-30 0 -61 -3l-149 -58zM283 242v114v58v45v127v57l10 193q22 149 22 241q25 123 70 193 q115 -41 182 -113l13 -22l10 -25l12 -45l12 -80l23 -252q61 -163 61 -283q0 -287 -348 -333q-53 65 -67 125z" />
<glyph unicode="P" horiz-adv-x="985" d="M111 2h47h37h237v35l-10 156v36v35l-12 84l-13 262q104 -21 188 -21q358 0 358 377q0 179 -81 443h-59h-47q-54 13 -101 13q-16 0 -30 -1h-62h-35h-36h-35l-25 13h-47h-35h-239v-1432zM289 694v47v203v37v143q23 -2 45 -2q62 0 110 13q34 4 64 4q214 0 214 -222 q0 -27 -3 -57q-11 -177 -280 -177q-67 0 -150 11z" />
<glyph unicode="Q" horiz-adv-x="1202" d="M221 1323q-111 -288 -111 -550q0 -415 279 -765l240 12l12 -36q39 -29 59 -72l131 -131q60 82 132 131q69 108 155 168l-12 35q-21 12 -25 24l-22 25l-121 155q129 261 129 527q0 66 -8 131q0 453 -422 453q-64 0 -139 -11q-166 -28 -277 -96zM498 104q-87 278 -87 483 q0 365 277 496q251 -18 251 -284q0 -55 -11 -121q-22 -228 -187 -228q-9 0 -18 1l-10 -60q-15 -176 -121 -299q-60 0 -94 12z" />
<glyph unicode="R" horiz-adv-x="1157" d="M109 4h36h50h34h244v37v37v37l12 35v86l13 268q75 24 139 24h18l25 -36l12 -50l25 -36l12 -37q107 -148 123 -303l47 -50q51 17 86 37q-47 53 -74 109q-12 303 -231 463q296 165 296 462q0 30 -3 62q-12 293 -359 293q-70 0 -153 -12q-12 -15 -23 -13l-86 -12l-24 -12 h-37q-92 -23 -158 -25v-305l-12 -158v-549l-12 -22v-330zM340 1221q16 1 32 1q328 0 369 -317q-31 -276 -283 -277q-43 0 -93 9v49v37l-13 133v37v170q-14 67 -14 119q0 21 2 39z" />
<glyph unicode="S" horiz-adv-x="909" d="M129 459q-1 -26 -1 -50q0 -402 379 -401h25q34 -3 66 -3q308 0 308 307q0 46 -7 98q1 22 1 44q0 227 -95 406q-187 55 -309 60l-35 71q-4 42 -4 78q0 220 136 220q45 0 105 -25q4 -23 4 -45q0 -46 -16 -86q78 14 131 36q-18 250 -252 250q-21 0 -45 -2h-12h12h-24h12h-12 q-385 -26 -385 -355q0 -135 65 -321q70 19 132 19q132 0 224 -88q32 -144 32 -266q0 -66 -9 -125q-117 -86 -241 -86q-21 0 -42 2q0 86 11 143l12 119h-166z" />
<glyph unicode="T" horiz-adv-x="1038" d="M117 985h200v-82q0 -139 -12 -237v-377q-15 -111 -15 -199q0 -40 3 -74h47h37h82h35q91 -15 163 -15q33 0 62 3v84q-12 37 -12 70v59l-13 72v47v70l-12 59v47v59v47q-12 48 -12 93q0 20 2 39v47q-15 30 -13 59v47l-12 82l-12 260h366v35l-12 141h-59h-70h-59h-47h-129 h-47l-48 13h-36h-365v-226q-16 -85 -16 -155q0 -36 4 -68z" />
<glyph unicode="U" horiz-adv-x="1056" d="M111 1425l12 -1177q35 -68 47 -131q119 -119 294 -119q95 0 206 35q362 212 362 588q0 109 -31 233v37v237l-141 -24q14 -158 14 -283q0 -484 -211 -484q-90 0 -219 89v59l11 60v47v49l24 213v59l13 203l12 35l10 215h-35h-35l-36 12z" />
<glyph unicode="V" horiz-adv-x="1026" d="M20 1430l13 -82l10 -70q2 -57 12 -92l13 -82l10 -80v-35l24 -94l11 -80q20 -65 24 -117q25 -71 35 -127l10 -34l13 -35q32 -96 47 -164l22 -23l12 -34q17 -58 35 -93l80 -186q84 39 129 70l82 47l209 104l10 70l13 57v70l12 57v35q18 70 22 129l13 45l10 129l12 57v35 l12 82l11 35l12 57q0 60 12 93q6 110 23 186l-162 -12v-35l-25 -105q-8 -325 -139 -579l-10 -82l-59 35l-11 47l-12 69v47l-12 46v34q-13 33 -13 67q0 14 2 28v69l-12 45v129q-14 11 -12 23l-12 231h-35h-150l-82 13h-209z" />
<glyph unicode="W" horiz-adv-x="1459" d="M121 1075l10 -57l12 -57l45 -359q31 -92 35 -162l35 -196l12 -35v-33l23 -94l22 -80l127 12q109 21 187 23q6 94 22 162v45l13 35v34l22 185l10 34q2 58 13 93q4 176 47 288l10 -34v-93l-10 -229q12 -31 10 -59l12 -35l13 -137l10 -35l12 -58l23 -208h47l196 -23l23 92 q45 107 57 185l23 57l24 70l11 69l22 35v47l25 45q14 90 34 150l11 47l12 47l12 45v35l10 47l70 287l-127 59l-12 -35l-10 -24v-46q-13 -86 -13 -139q-13 -47 -13 -88q0 -14 1 -26l-10 -35v-35l-12 -92l-11 -23v-35l-59 -231h-35v35l-10 127v127v114q-15 19 -12 35l-11 47 v92q-24 70 -24 127h-35l-35 13l-33 10l-94 23q-65 28 -127 34l-10 -34v-33q-12 -56 -12 -94q-21 -66 -23 -127l-12 -80q-21 -68 -23 -127q-22 -117 -22 -196v-13q-23 22 -25 47q-12 68 -12 123q0 20 2 39l-12 47v33l-13 151v35l-11 35v92v35q-14 10 -11 22l-10 185h-197 q-12 -15 -25 -13q-112 -37 -194 -45v-35q-10 -78 -10 -145t10 -121z" />
<glyph unicode="X" horiz-adv-x="953" d="M40 1225l22 -35l12 -45l23 -45l22 -35l23 -45l23 -35l22 -45q39 -55 57 -92l13 -23l90 -170l-10 -34l-13 -35l-80 -170q-18 -72 -45 -115l-12 -33l-10 -24l-70 -170q80 -37 127 -68l23 68q6 86 32 147l48 230l45 55l22 -45l12 -35l11 -33l12 -69l80 -330h33l24 12l103 23 q65 28 112 33q35 79 70 127l-12 45l-80 147l-23 70q-35 53 -45 102q-63 84 -80 160l68 90l22 35q21 47 47 80l11 32l22 23l47 80l11 24q38 54 57 90l-125 93q-25 -78 -57 -127l-13 -33q-84 -141 -112 -240h-13h13h-13l-10 90l-12 47q-23 68 -23 125l-80 250l-57 58l-35 -23 l-22 -22l-80 -35l-23 -23z" />
<glyph unicode="Y" horiz-adv-x="995" d="M111 1176q43 -64 63 -109l55 -53l21 -10l20 -11q136 -116 205 -202l-53 -119l-23 -33l-20 -31l-23 -33l-10 -32l-20 -41l-13 -23l-20 -20q-57 -144 -119 -226l23 -22l32 -21l11 -20l20 -12q31 -37 66 -54q59 -73 127 -106q51 55 75 96l21 53l22 54l21 53l22 43l11 53 l20 43q33 80 66 129l20 76l23 53v31q28 61 43 119l30 117l33 106l10 33q66 141 86 246l-129 65q-22 -55 -43 -86l-10 -43l-10 -76l-43 -192l-43 22l-10 21q-131 268 -301 418q-11 -19 -21 -21l-10 -22l-33 -21l-53 -53l-10 -23l-23 -10q-53 -72 -106 -106z" />
<glyph unicode="Z" horiz-adv-x="1048" d="M111 4h61l37 12h51l37 13h39l37 12h37q36 14 72 14q14 0 28 -2q61 28 128 28q12 0 24 -1q194 47 325 49q-6 145 -37 252q-73 -195 -246 -195q-54 0 -118 19l12 49l12 51l27 37q2 33 12 51q31 135 74 213v37l14 39q29 59 37 100l100 250v37l37 88l27 252h-51h-49 q-25 -1 -49 -1q-95 0 -166 13h-62h-37h-51l-88 13h-225l24 -189q155 81 304 81q37 0 73 -5l-63 -137l-25 -15l-24 -61l-13 -39l-26 -25q-19 -63 -37 -100q-62 -113 -88 -201l-13 -36l-24 -89l-12 -75l-13 -37l-26 -37q-25 -160 -74 -264q-13 -90 -13 -161q0 -21 1 -40z" />
<glyph unicode="[" horiz-adv-x="780" d="M111 479q143 60 260 33v-90l-23 -68q-131 -258 -125 -510q41 -63 58 -112l90 -45l35 -13l32 -10l45 -12q111 -47 193 -68v68l12 57v33l10 80l13 250q-129 -6 -181 90q62 483 -182 655q58 12 90 35v35l-10 327h33l22 11l250 -11v46v57l-12 22v78v47v33v35q-16 76 -10 135 h-113q-12 -12 -23 -12q-213 4 -362 -68l-12 -45v-33l35 -159q53 -176 45 -318q-86 -45 -158 -45v-145l-12 -193v-170z" />
<glyph unicode="\" horiz-adv-x="739" d="M-4 1454q0 -29 8 -51l188 -289l488 -1345l143 133q0 30 -8 53l-306 607q-299 995 -370 1027z" />
<glyph unicode="]" horiz-adv-x="813" d="M111 47v-102l12 -23v-192q16 -76 10 -136h35h33l22 13q205 26 340 22l68 45v146q-27 65 -35 112v48l-45 190q117 80 237 68l-12 57v45v35l-10 33v34v45l-35 283q-139 -45 -258 -35q-2 66 10 113q21 84 45 137l13 33l22 90l10 22q35 84 45 148q3 106 -10 180l-45 58 l-35 10l-22 22l-113 35q-129 66 -225 90l-12 -125v-32l-11 -80l-12 -248q117 2 180 -80q-47 -535 183 -666l-93 -22v-125q15 -150 13 -248q-162 -39 -305 0z" />
<glyph unicode="_" horiz-adv-x="1169" d="M116 6l1 44l14 31l324 -12l496 5q57 8 47 -70z" />
<glyph unicode="a" horiz-adv-x="858" d="M113 375q0 -156 24 -256q87 -80 170 -80q104 0 201 125l12 -162h82l209 12v58v34l-12 35v95v57q0 57 -11 92v94q0 109 -12 185q-8 362 -378 361q-66 0 -144 -11q-111 -9 -111 -72q0 -33 29 -80q9 -2 18 -2q35 0 64 37q72 27 125 27q126 0 141 -154q-24 -59 -35 -106 q-86 28 -167 28q-95 0 -181 -39l-12 -24l-12 -80v-174zM289 246q-8 34 -8 64q0 112 112 157q153 -21 153 -108q0 -77 -118 -205q-35 -10 -61 -10q-79 0 -78 95v7z" />
<glyph unicode="b" horiz-adv-x="1034" d="M109 1325q12 -29 10 -53l12 -207l10 -33l11 -260q8 -18 10 -76q2 -53 12 -86l10 -401q15 -80 15 -143q0 -33 -4 -62h43h32h43h197l43 141l33 -108q29 -4 55 -4q328 0 328 552q0 63 -4 134q-39 238 -192 238q-109 0 -275 -119l12 32v43v33l10 217v76l10 195h-108 q-32 -12 -67 -12q-9 0 -19 1q-110 -23 -193 -23q-18 0 -34 1v-76zM586 557q18 1 36 1q82 0 148 -23q54 -154 54 -242q0 -116 -95 -116q-29 0 -67 11q-137 96 -137 210q0 75 61 159z" />
<glyph unicode="c" horiz-adv-x="735" d="M119 614q-11 -85 -11 -165q0 -187 60 -351q160 -96 332 -96q62 0 125 12v97l12 84q-81 -20 -144 -19q-213 0 -213 227q0 42 7 91q61 160 235 160q52 0 115 -15l12 35v37l23 96l24 143q-164 73 -312 73q-18 0 -36 -1q-45 -16 -96 -16q-24 0 -49 4q-21 -80 -72 -119v-37 q-15 -97 -15 -174q0 -35 3 -66z" />
<glyph unicode="d" horiz-adv-x="1157" d="M129 727q-22 -131 -22 -253q0 -175 45 -331q128 -100 275 -100q66 0 136 20q51 109 115 173v-46q22 -116 22 -194l285 35v67v45v47v33l12 25v45v35v227v45v35q11 53 11 92v45v125v125v35q13 38 13 74q0 9 -1 18l-12 285h-33h-150q-70 -17 -134 -17q-31 0 -60 4v-204 q-11 -56 -11 -98q0 -14 1 -27q13 -124 13 -224t-13 -176q-156 159 -285 159q-114 0 -207 -124zM426 281q2 215 80 376q188 -50 188 -227q0 -33 -6 -70q-65 -141 -146 -141q-55 0 -116 62z" />
<glyph unicode="e" horiz-adv-x="902" d="M94 296q14 -303 350 -303q148 0 358 59l33 166q-115 -8 -188 -33l-33 -10q-64 -10 -111 -12q-91 -25 -170 -25q-32 0 -61 4q-67 168 -67 329q0 131 44 257q88 27 154 27q198 0 211 -238l-23 -43h-43l-88 23q-86 35 -166 43l-12 -176h33h110h133l33 10h35h221q3 51 3 100 q0 258 -93 465q-177 83 -349 83q-40 0 -81 -5q-272 -99 -272 -434q0 -127 39 -287z" />
<glyph unicode="f" horiz-adv-x="733" d="M54 813q-2 -84 68 -84h7v-76v-24q0 -71 -10 -125v-160q1 -22 1 -42q0 -81 -13 -140v-160h33q53 2 86 10l213 11v43q-13 16 -11 32v43l-10 31v33l-10 33v30v33l-33 182q27 13 54 13t53 -13v84l10 33v117v33l12 213q-130 7 -130 154q0 76 34 188q166 -13 289 -64l20 96h-33 l-63 21q-177 76 -334 76h-8q-74 -41 -117 -97l-12 -32l-10 -74l-11 -86v-342z" />
<glyph unicode="g" horiz-adv-x="1093" d="M-9 -352l36 -13l226 -63h61l162 -12l39 -13h37h49h225l25 25q82 43 125 88q37 127 49 211v174l-12 162v76q-14 56 -14 111q0 13 1 26v86l-12 76v36v50v39l-12 36v37v49l-13 201l-149 37l-39 -125q-201 114 -349 114q-220 0 -323 -251q-7 -81 -7 -160q0 -343 132 -625 q84 -30 158 -30q147 0 252 119h63q-8 -224 -88 -388l-86 -12h-39q-90 8 -149 25l-37 12l-287 76v-37q-20 -76 -24 -137zM427 233v99v250l37 36q264 -10 286 -262q-69 -205 -243 -205q-32 0 -68 7v49z" />
<glyph unicode="h" horiz-adv-x="796" d="M109 1473q12 -93 12 -154l12 -428q16 -68 16 -130q0 -37 -6 -71l13 -47v-260q14 -18 12 -37v-201q13 -63 13 -117q0 -13 -1 -26h47h35q122 25 213 25h25q1 17 1 33q0 69 -14 120v166v37l-12 23v34v37v225q76 25 136 25q15 0 30 -2l37 -35v-106q-12 -43 -12 -131 q-14 -53 -14 -100q0 -15 1 -29l-12 -37v-70l-10 -37v-129l-13 -24l-12 -191l154 -35q-1 21 -1 40q0 78 13 139q2 16 2 31q0 73 -49 110v59v37q0 62 12 94v47v82v37q9 100 9 186q0 131 -21 228q-68 30 -124 30q-74 0 -126 -53v35l-10 131v60v34v35v37q-16 77 -16 140 q0 33 4 61v37q-14 59 -14 110q0 16 1 31h-84q-126 -35 -227 -35h-20v-71z" />
<glyph unicode="i" horiz-adv-x="671" d="M106 868l25 -276l12 -62v-88l15 -39v-88l37 -313h36l316 12l12 39l12 49v37l13 51v37l14 39v213q13 53 13 93q0 10 -1 20v63v50q14 41 14 81q0 9 -1 19v51l12 201h-37h-391q-45 -21 -88 -25q0 -98 -13 -164zM182 1169l37 -12h100h39h164q108 89 108 149q0 123 -448 128 q-47 -71 -47 -137t47 -128z" />
<glyph unicode="j" horiz-adv-x="782" d="M-195 -377h60h37q39 -12 83 -12h13l37 -12h35l36 -11h35l183 -24h34q95 -16 169 -16q33 0 61 3l96 134q14 92 35 155l12 240v72v61v72l12 37v118v37v35l13 242h-156h-12h12h-25h13h-25h12h-24h12h-24h12h-25h13h-23h10h-10q-92 -18 -167 -18q-40 0 -75 5q13 -69 13 -120 v-35q14 -19 12 -37v-47q12 -70 12 -121v-313q0 -183 -24 -299q-94 -16 -180 -16q-109 0 -205 26h-84zM238 1174q100 -138 229 -193q250 2 264 242q-31 240 -244 240q-15 0 -32 -1q-201 -108 -217 -288z" />
<glyph unicode="k" horiz-adv-x="962" d="M117 1362l10 -33v-106l10 -31l13 -244l10 -53l30 -530q13 -17 11 -33v-64l12 -43l10 -200q62 2 107 10l30 10v53v33v43v31q-12 87 -12 155q0 31 2 58l43 -33l10 -43l21 -41l33 -43q71 -188 147 -297q43 41 74 64l33 10q86 94 180 139l-10 41q-45 59 -64 107l-43 106 q-12 16 -10 31l-21 22l-12 31l-31 76q-38 57 -53 104l21 23l22 30l21 23l20 10l12 21q11 18 21 22q65 99 127 148l-64 73l-20 -41l-23 -32l-63 -84l-10 -33q-11 -18 -21 -21l-12 -32q-10 -17 -21 -21l-127 -233q-51 14 -51 63q0 19 8 43v41v33v190v140v41v180v33v127h-180 q-70 -15 -130 -15q-31 0 -60 4v-63z" />
<glyph unicode="l" horiz-adv-x="532" d="M111 1042q11 -116 11 -203q0 -25 -1 -48l12 -43v-33q-2 -32 -2 -61q0 -78 12 -136v-194l11 -23v-184q13 -59 13 -108q0 -12 -1 -23h18q52 0 90 10l218 22l-11 109q-56 11 -56 65q0 5 1 11v55l10 66v53v55v55v64q17 99 17 174q0 36 -4 66q11 52 11 96q0 12 -1 24v43v66 l10 88v31v153q13 63 13 111q0 16 -1 31h-32h-338v-392z" />
<glyph unicode="m" horiz-adv-x="1290" d="M111 18l34 -10h45h197h35h137v33v35v149l-12 35v57v48v45v79q-11 92 -11 163q0 23 1 44l45 150h69q11 -103 11 -174v-21v-127q-14 -105 -14 -183q0 -37 3 -69h35h33h35h149q1 351 91 351q31 0 71 -41q18 -41 22 -80q0 -82 -12 -137l-10 -70v-80l-23 -197l195 -22v45 l-12 127v35v127l-11 45v35v114v35l-12 35v92v35l-10 33l-12 139l-23 80q-69 21 -125 21q-173 0 -221 -206h-45q-39 183 -219 197q-21 -63 -80 -70q7 53 7 92q0 110 -52 115q-150 -53 -254 -57v-115q-13 -54 -13 -103q0 -12 1 -24l-11 -102v-162q-13 -59 -13 -105 q0 -11 1 -22v-92q-12 -33 -12 -90q0 -22 2 -47z" />
<glyph unicode="n" horiz-adv-x="995" d="M109 602q13 -56 13 -105q0 -12 -1 -24v-424l364 -47q-3 62 -3 118q0 199 38 341q48 15 90 15q94 0 158 -73v-71l-10 -35v-84l-13 -23v-47l-24 -200h106v34l25 132v47l22 116v60l13 35v59q38 222 38 377q0 44 -3 84q-104 68 -195 69q-99 0 -182 -82v35v35q-14 65 -14 117 q0 12 1 24h-47h-34h-82h-37q-91 16 -164 16q-31 0 -59 -3v-496z" />
<glyph unicode="o" horiz-adv-x="905" d="M141 371q89 -370 390 -370q108 0 243 48v35l10 20v35l13 33v33l22 178v33q11 86 11 148q0 21 -1 40q2 27 2 52q0 61 -12 114l-12 78q-109 178 -333 178q-57 0 -122 -12q-241 -117 -241 -411q0 -105 30 -232zM365 903h98l22 -67v-189q1 -18 1 -35q0 -60 -11 -108 q2 -28 2 -56q0 -152 -47 -276h-55q-188 281 -188 465q0 179 178 266z" />
<glyph unicode="p" horiz-adv-x="1157" d="M111 -285v-385h39l90 13l24 12h39l166 27l90 12v39l-24 129v37l-15 39v38v39q-24 105 -24 179q-52 75 -52 155l52 -39h14q595 0 595 500q0 156 -58 360q-46 58 -64 115q-113 32 -214 32q-265 0 -441 -224h-37q7 60 7 105q0 140 -66 140q-9 0 -19 -2l-76 -26v-422 q-14 -44 -14 -91v-12v-591q1 -26 1 -50q0 -72 -13 -129zM457 203v102v256l51 51q199 -6 244 -178q43 -61 43 -113q0 -66 -68 -118q-126 -40 -231 -40q-13 0 -27 1z" />
<glyph unicode="q" horiz-adv-x="1096" d="M129 258q121 -252 390 -252q54 0 114 10q41 84 74 134q-2 -91 -13 -146v-119l13 -49v-72l12 -36l22 -277q179 2 314 72v37v37v34l-13 37v84l-12 264h-96v84v50v59v49v59v72v170l-12 47v49v35v62v34v50v34v242h-203h-37h-145l12 -168q-85 28 -154 28q-282 0 -282 -468 q0 -110 16 -246zM272 786l37 50l84 24h7q117 0 198 -61q7 -55 7 -106q0 -84 -19 -158q-114 -91 -186 -91q-129 0 -129 286q0 27 1 56z" />
<glyph unicode="r" horiz-adv-x="965" d="M109 721q13 -59 13 -108q0 -24 -3 -46l12 -567h33h33h32h142q-38 185 -38 353q0 208 58 388l78 33h76v-151q11 -50 11 -89q0 -11 -1 -22h45h43h33h43h196q1 21 1 41q0 236 -76 408q-65 11 -125 11q-209 0 -357 -132v32v33l-10 66v65h-33q-32 -18 -65 -22 q-78 -37 -141 -43v-250z" />
<glyph unicode="s" horiz-adv-x="808" d="M6 23l28 -10l41 -10h166h39h109h69l29 10h29h30h68l59 10q70 107 70 216q7 48 7 91q0 298 -302 429v26q0 76 10 131q57 19 93 19q64 0 63 -59q0 -24 -10 -58h139q-4 117 -60 197h-30h-39h-29h-28q-107 12 -184 12q-34 0 -62 -2q-128 -96 -128 -242q0 -39 9 -82 q-2 -20 -2 -39q0 -186 248 -188q31 -97 31 -188q0 -54 -11 -107l-20 -29h-99h-38h-39h-31h-39h-176z" />
<glyph unicode="t" horiz-adv-x="891" d="M7 977l32 -111h199v-31q0 -92 -10 -157v-299q12 -81 12 -144q0 -24 -2 -45l23 -98q65 -65 133 -90q118 0 198 45l11 23v32q26 54 34 88q37 136 76 222q-118 60 -118 192q0 67 30 152q76 29 146 29q39 0 75 -9v35l23 121h-33l-199 10v35l21 88l22 176h-55h-33h-32l-78 12 h-111q-62 13 -119 13q-24 0 -47 -2v-45l33 -277h-43q-111 31 -188 35z" />
<glyph unicode="u" horiz-adv-x="781" d="M59 958l10 -469q2 -81 12 -131l10 -284q81 -68 169 -68q14 0 28 2q10 15 23 12l20 21l33 12l22 21l33 12q100 86 197 119l10 -207l131 22v23q0 68 -10 119v55q0 88 -13 152v32v197v33v338h-32l-273 55h-10h10h-10q13 -83 13 -156q0 -279 -187 -422q-49 -22 -91 -22h-7 q-14 53 -14 98q0 11 1 21v45v33v75q15 109 15 186q0 29 -2 54z" />
<glyph unicode="v" horiz-adv-x="856" d="M106 899l11 -18l47 -201l18 -39l11 -68l18 -28v-37l20 -29v-39q11 -14 9 -28l20 -29v-39q23 -37 29 -76l8 -28l10 -29v-29q41 -92 47 -172l29 -10l20 18q48 29 86 39q11 11 19 11q82 65 154 86v28q28 109 38 183l9 36v39l10 39q16 58 18 105l11 39l10 28v29l8 29v28 l20 76l19 115l-115 57l-18 -94v-29l-10 -57l-11 -60l-18 -75l-10 -47q-9 -113 -9 -194v-28h-67v39l-10 29v39v37q-12 39 -12 74q0 16 3 32v37v29v78l-10 18v29v28v125q-6 25 -29 29q-14 -10 -28 -10q-15 -10 -29 -8q-14 -13 -29 -11q-14 -10 -28 -10q-64 -33 -125 -37 q-76 -41 -144 -49z" />
<glyph unicode="w" horiz-adv-x="1101" d="M113 895l10 -49l10 -60l8 -59q27 -90 31 -158l10 -39l11 -38l8 -39q6 -58 20 -101v-39q15 -39 21 -108q32 -101 39 -178h28l129 -19l49 -10v39l11 49l10 41v29v39l8 49l10 80v28l11 31q2 109 28 186l10 -57l31 -276l19 -218l41 9h39q129 45 217 51v39l10 49l8 39l10 157 l11 31l10 137l10 50l10 30v29v49l8 31v29l21 157h-59l-11 -18v-41l-10 -19l-18 -157l-21 -80v-39l-10 -70v-98q-21 6 -29 20q-2 56 -10 99v28v31v29l-10 20v49v29q-11 10 -8 21l-21 168h-31l-28 10l-70 28l-109 29l-10 -29v-59l-8 -29l-10 -69l-10 -39q-15 -154 -39 -248 q-11 -16 -31 -18q14 92 14 179q0 212 -82 392l-20 -20l-39 -9q-131 -71 -227 -100z" />
<glyph unicode="x" horiz-adv-x="821" d="M111 909q28 -69 39 -116l18 -39l20 -39l19 -37l10 -31l68 -172l8 -29q47 -90 67 -155q-18 -58 -36 -96l-21 -19l-10 -29l-8 -28q-41 -68 -58 -117q9 -1 18 -1q166 0 183 175q41 -94 59 -164h39q113 49 211 58q-28 73 -39 125l-18 28l-10 31l-11 29l-8 28l-78 221l21 29 l18 39l19 29l10 28l18 29l11 29l20 20q47 111 86 174l-86 66q-61 -139 -155 -221l-39 116v29q-27 62 -29 115l-39 10q-8 -10 -18 -10q-109 -51 -193 -68q-53 -31 -106 -37z" />
<glyph unicode="y" horiz-adv-x="876" d="M190 651l11 -22l12 -23q109 -119 143 -233v-68l-10 -45l-12 -33l-10 -22q-15 -82 -33 -133l-12 -78l-11 -23q-14 -82 -45 -188l-10 -78l-12 -123l78 -10q122 -31 224 -31q52 0 99 8l23 121l32 178l11 58q28 104 34 178l11 20q4 121 22 201l10 55v58l13 33v65l10 57v43 q12 38 12 79v12l11 22v33l22 166q-53 28 -78 57h-33q-135 27 -223 33l-10 -45l-12 -23l-23 -100v-121l-22 -90q-25 -64 -33 -111h-33l-12 23l-10 22q-105 148 -134 299q-80 -44 -80 -99t80 -122z" />
<glyph unicode="z" horiz-adv-x="661" d="M109 913l10 -20v-172q11 -54 11 -99q0 -13 -1 -24l205 10l-31 -102l-20 -31q-56 -131 -103 -205l-10 -49l-10 -31l-10 -61l-31 -133h174h31h30h49q125 43 215 51v31v41v172v31v122h-30h-41h-31q-80 -30 -143 -30l10 30l31 103q18 53 30 82l11 30v31l10 21l10 20l31 121 q31 80 31 154h-31q-51 2 -82 10h-203q-41 -13 -78 -13q-17 0 -34 3v-93z" />
<glyph unicode="{" />
<glyph unicode="|" />
<glyph unicode="}" />
<glyph unicode="~" />
<glyph />
<glyph />
<glyph />
<glyph />
<glyph />
<glyph unicode="&#x85;" />
<glyph />
<glyph />
<glyph />
<glyph />
<glyph />
<glyph />
<glyph />
<glyph />
<glyph />
<glyph />
<glyph />
<glyph />
<glyph />
<glyph />
<glyph />
<glyph />
<glyph />
<glyph />
<glyph />
<glyph />
<glyph />
<glyph />
<glyph />
<glyph />
<glyph />
<glyph />
<glyph unicode="&#xa1;" />
<glyph unicode="&#xa2;" />
<glyph unicode="&#xa3;" />
<glyph unicode="&#xa4;" />
<glyph unicode="&#xa5;" />
<glyph unicode="&#xa6;" />
<glyph unicode="&#xa7;" />
<glyph unicode="&#xa8;" />
<glyph unicode="&#xa9;" />
<glyph unicode="&#xaa;" />
<glyph unicode="&#xab;" />
<glyph unicode="&#xac;" />
<glyph unicode="&#xad;" />
<glyph unicode="&#xae;" />
<glyph unicode="&#xaf;" />
<glyph unicode="&#xb0;" />
<glyph unicode="&#xb1;" />
<glyph unicode="&#xb2;" />
<glyph unicode="&#xb3;" />
<glyph unicode="&#xb4;" />
<glyph unicode="&#xb5;" />
<glyph unicode="&#xb6;" />
<glyph unicode="&#xb7;" />
<glyph unicode="&#xb8;" />
<glyph unicode="&#xb9;" />
<glyph unicode="&#xba;" />
<glyph unicode="&#xbb;" />
<glyph unicode="&#xbc;" />
<glyph unicode="&#xbd;" />
<glyph unicode="&#xbe;" />
<glyph unicode="&#xbf;" />
<glyph unicode="&#xc0;" />
<glyph unicode="&#xc1;" />
<glyph unicode="&#xc2;" />
<glyph unicode="&#xc3;" />
<glyph unicode="&#xc4;" />
<glyph unicode="&#xc5;" />
<glyph unicode="&#xc6;" />
<glyph unicode="&#xc7;" />
<glyph unicode="&#xc8;" />
<glyph unicode="&#xc9;" />
<glyph unicode="&#xca;" />
<glyph unicode="&#xcb;" />
<glyph unicode="&#xcc;" />
<glyph unicode="&#xcd;" />
<glyph unicode="&#xce;" />
<glyph unicode="&#xcf;" />
<glyph unicode="&#xd0;" />
<glyph unicode="&#xd1;" />
<glyph unicode="&#xd2;" />
<glyph unicode="&#xd3;" />
<glyph unicode="&#xd4;" />
<glyph unicode="&#xd5;" />
<glyph unicode="&#xd6;" />
<glyph unicode="&#xd7;" />
<glyph unicode="&#xd8;" />
<glyph unicode="&#xd9;" />
<glyph unicode="&#xda;" />
<glyph unicode="&#xdb;" />
<glyph unicode="&#xdc;" />
<glyph unicode="&#xdd;" />
<glyph unicode="&#xde;" />
<glyph unicode="&#xdf;" />
<glyph unicode="&#xe0;" />
<glyph unicode="&#xe1;" />
<glyph unicode="&#xe2;" />
<glyph unicode="&#xe3;" />
<glyph unicode="&#xe4;" />
<glyph unicode="&#xe5;" />
<glyph unicode="&#xe6;" />
<glyph unicode="&#xe7;" />
<glyph unicode="&#xe8;" />
<glyph unicode="&#xe9;" />
<glyph unicode="&#xea;" />
<glyph unicode="&#xeb;" />
<glyph unicode="&#xec;" />
<glyph unicode="&#xed;" />
<glyph unicode="&#xee;" />
<glyph unicode="&#xef;" />
<glyph unicode="&#xf0;" />
<glyph unicode="&#xf1;" />
<glyph unicode="&#xf2;" />
<glyph unicode="&#xf3;" />
<glyph unicode="&#xf4;" />
<glyph unicode="&#xf5;" />
<glyph unicode="&#xf6;" />
<glyph unicode="&#xf7;" />
<glyph unicode="&#xf8;" />
<glyph unicode="&#xf9;" />
<glyph unicode="&#xfa;" />
<glyph unicode="&#xfb;" />
<glyph unicode="&#xfc;" />
<glyph unicode="&#xfd;" />
<glyph unicode="&#xfe;" />
<glyph unicode="&#xff;" />
<glyph unicode="&#x2000;" horiz-adv-x="836" />
<glyph unicode="&#x2001;" horiz-adv-x="1673" />
<glyph unicode="&#x2002;" horiz-adv-x="836" />
<glyph unicode="&#x2003;" horiz-adv-x="1673" />
<glyph unicode="&#x2004;" horiz-adv-x="557" />
<glyph unicode="&#x2005;" horiz-adv-x="418" />
<glyph unicode="&#x2006;" horiz-adv-x="278" />
<glyph unicode="&#x2007;" horiz-adv-x="278" />
<glyph unicode="&#x2008;" horiz-adv-x="209" />
<glyph unicode="&#x2009;" horiz-adv-x="334" />
<glyph unicode="&#x200a;" horiz-adv-x="92" />
<glyph unicode="&#x2010;" horiz-adv-x="541" d="M78 707l8 -174l227 26l185 -6l-25 173l-160 11z" />
<glyph unicode="&#x2011;" horiz-adv-x="541" d="M78 707l8 -174l227 26l185 -6l-25 173l-160 11z" />
<glyph unicode="&#x2012;" horiz-adv-x="541" d="M78 707l8 -174l227 26l185 -6l-25 173l-160 11z" />
<glyph unicode="&#x2013;" horiz-adv-x="1145" d="M78 707l20 -174l553 26l451 -6l-61 173l-390 11z" />
<glyph unicode="&#x2014;" horiz-adv-x="2169" d="M78 707l39 -174l1107 26l902 -6l-122 173l-780 11z" />
<glyph unicode="&#x202f;" horiz-adv-x="334" />
<glyph unicode="&#x205f;" horiz-adv-x="418" />
<glyph unicode="&#xe000;" horiz-adv-x="1025" d="M0 0v1025h1025v-1025h-1025z" />
</font>
</defs>
</svg>
